<?xml version="1.0" standalone="no"?>
<!DOCTYPE svg PUBLIC "-//W3C//DTD SVG 20010904//EN"
 "http://www.w3.org/TR/2001/REC-SVG-20010904/DTD/svg10.dtd">
<svg version="1.0" xmlns="http://www.w3.org/2000/svg"
 width="200pt" height="200pt" viewBox="0 0 1024.000000 1024.000000"
 preserveAspectRatio="xMidYMid meet">

<g transform="translate(0.000000,1024.000000) scale(0.100000,-0.100000)"
fill="#000000" stroke="none">
<path d="M4880 8853 c-503 -35 -921 -147 -1375 -368 -557 -272 -1064 -713
-1417 -1230 -425 -623 -637 -1356 -615 -2130 23 -807 311 -1570 825 -2186 573
-688 1357 -1149 2202 -1293 255 -44 334 -50 625 -50 385 0 659 36 988 130 799
227 1532 749 2014 1434 334 474 546 1017 630 1610 22 160 25 717 5 880 -92
729 -392 1402 -874 1962 -559 648 -1378 1091 -2243 1212 -210 30 -564 43 -765
29z m415 -363 c313 -20 539 -59 800 -138 423 -128 814 -338 1145 -615 642
-536 1049 -1273 1154 -2087 22 -175 30 -280 19 -280 -13 0 -216 123 -290 176
-35 25 -107 81 -161 126 -130 107 -190 150 -361 253 -198 118 -240 154 -405
339 -167 188 -200 219 -329 315 -53 39 -108 88 -121 108 -14 21 -50 112 -81
202 -88 262 -142 359 -300 541 -66 76 -304 306 -454 438 -72 64 -181 85 -250
48 -97 -51 -183 -198 -280 -474 -54 -155 -72 -187 -169 -296 -69 -76 -80 -97
-138 -246 -132 -346 -407 -716 -658 -885 -49 -33 -100 -70 -113 -82 -30 -29
-30 -74 1 -109 20 -24 32 -28 89 -32 83 -5 143 14 239 77 160 105 342 291 465
476 120 180 171 281 257 505 l48 125 93 90 c100 98 122 128 159 226 34 90 112
255 123 262 17 11 47 -33 143 -208 69 -125 94 -179 94 -205 0 -19 -21 -82 -46
-140 -80 -185 -111 -293 -112 -395 -1 -130 23 -182 158 -335 80 -91 88 -118
54 -192 -89 -193 -397 -557 -528 -623 -104 -53 -276 -100 -530 -145 -69 -12
-135 -28 -147 -36 -24 -15 -52 -121 -56 -214 l-2 -55 185 -7 c524 -21 935 -91
1351 -234 357 -121 557 -247 617 -387 56 -130 -86 -294 -383 -442 -395 -197
-1044 -372 -1783 -480 -131 -19 -262 -39 -292 -45 -49 -9 -56 -8 -74 10 -22
22 -30 -52 89 815 47 345 80 581 116 850 18 126 27 166 44 190 51 69 69 118
70 186 0 56 -4 71 -27 100 -54 71 -153 74 -219 7 l-38 -40 -73 17 c-146 34
-162 41 -183 72 -12 16 -70 142 -129 279 -112 257 -144 316 -197 356 l-30 24
58 17 c144 40 223 153 223 318 l0 66 46 6 c65 7 98 34 102 84 5 61 -19 83 -97
90 -62 6 -66 8 -121 63 -76 76 -128 94 -254 88 -136 -6 -220 -57 -273 -166
-25 -51 -28 -67 -28 -162 0 -97 2 -109 29 -158 17 -29 47 -69 68 -88 l38 -34
-109 -54 -110 -54 -39 38 c-68 64 -123 85 -227 85 -103 0 -156 -19 -222 -78
-70 -63 -90 -122 -232 -683 -63 -249 -56 -356 34 -462 50 -59 164 -102 274
-102 48 0 49 0 56 -37 3 -21 15 -68 27 -105 l20 -67 -72 -278 c-39 -153 -82
-301 -95 -330 -13 -29 -115 -189 -227 -355 -230 -343 -264 -398 -288 -475
l-17 -55 -72 112 c-336 520 -502 1086 -504 1715 -1 679 174 1275 535 1815 126
189 203 284 368 454 593 610 1348 958 2180 1006 190 11 203 11 375 0z m-1418
-3003 c66 -127 110 -160 263 -197 41 -10 118 -23 170 -30 52 -6 114 -13 138
-16 32 -4 42 -9 42 -24 0 -14 -41 -321 -75 -565 -3 -22 -26 -186 -50 -365 -25
-179 -58 -423 -75 -543 -16 -120 -30 -221 -30 -224 0 -8 -81 4 -91 14 -4 4 -9
143 -10 308 -2 165 -6 361 -9 435 l-5 135 -52 105 c-29 58 -116 219 -194 359
l-141 255 26 145 c15 80 32 174 38 209 6 34 14 62 17 62 3 0 21 -28 38 -63z
m3039 -347 c470 -24 801 -85 1214 -225 102 -35 202 -71 223 -80 l39 -16 -7
-52 c-13 -104 -65 -345 -100 -464 -110 -379 -318 -773 -584 -1108 -251 -315
-597 -610 -946 -806 -505 -285 -952 -410 -1520 -426 -177 -5 -484 9 -506 23
-12 7 260 264 394 372 281 225 550 383 1212 712 642 318 821 428 1022 626 183
182 260 338 251 512 -8 139 -53 237 -157 339 -215 212 -717 410 -1346 532
l-140 27 140 14 c121 11 370 24 570 28 33 1 142 -3 241 -8z m-3261 -740 c88
-94 128 -145 135 -170 8 -34 22 -307 36 -706 l7 -191 -89 -11 c-174 -22 -590
-62 -650 -62 -59 0 -61 1 -82 38 -11 20 -50 73 -86 116 l-65 79 47 61 c25 34
78 102 117 151 140 177 295 385 313 422 11 21 45 108 77 193 79 214 82 222 99
218 8 -2 71 -64 141 -138z"/>
</g>
</svg>
