<?xml version="1.0" encoding="UTF-8"?>
<!DOCTYPE svg PUBLIC "-//W3C//DTD SVG 1.1//EN" "http://www.w3.org/Graphics/SVG/1.1/DTD/svg11.dtd">
<svg xmlns="http://www.w3.org/2000/svg" version="1.1" width="1024px" height="1024px" style="shape-rendering:geometricPrecision; text-rendering:geometricPrecision; image-rendering:optimizeQuality; fill-rule:evenodd; clip-rule:evenodd" xmlns:xlink="http://www.w3.org/1999/xlink">
<g><path style="opacity:1" fill="#fdfcf9" d="M -0.5,-0.5 C 340.833,-0.5 682.167,-0.5 1023.5,-0.5C 1023.5,340.833 1023.5,682.167 1023.5,1023.5C 682.167,1023.5 340.833,1023.5 -0.5,1023.5C -0.5,682.167 -0.5,340.833 -0.5,-0.5 Z"/></g>
<g><path style="opacity:1" fill="#0d3240" d="M 874.5,462.5 C 874.508,483.988 874.341,505.654 874,527.5C 873.56,532.673 873.06,537.839 872.5,543C 872.508,544.707 872.842,546.207 873.5,547.5C 857.756,653.219 806.756,737.052 720.5,799C 710.442,805.693 700.109,811.86 689.5,817.5C 677.855,822.988 666.188,828.488 654.5,834C 638.984,839.985 623.984,845.485 609.5,850.5C 592.227,855.555 574.56,859.222 556.5,861.5C 555.378,860.844 554.045,860.511 552.5,860.5C 531.365,861.919 510.365,862.919 489.5,863.5C 369.606,852.831 275.44,798.498 207,700.5C 144.824,600.763 131.49,494.763 167,382.5C 206.128,275.705 278.628,201.538 384.5,160C 490.255,124.23 592.588,132.23 691.5,184C 787.526,239.788 847.026,322.288 870,431.5C 871.641,441.823 873.141,452.156 874.5,462.5 Z"/></g>
<g><path style="opacity:1" fill="#020c17" d="M 497.5,174.5 C 486.797,174.637 476.131,175.304 465.5,176.5C 484.205,172.939 503.205,171.772 522.5,173C 513.99,173.171 505.657,173.671 497.5,174.5 Z"/></g>
<g><path style="opacity:1" fill="#fcfbf8" d="M 497.5,174.5 C 628.386,172.676 728.552,226.676 798,336.5C 823.569,383.358 837.402,433.358 839.5,486.5C 820.351,476.518 803.018,464.018 787.5,449C 775.002,440.248 762.002,432.248 748.5,425C 743.211,421.38 738.211,417.38 733.5,413C 723.833,402 714.167,391 704.5,380C 695.667,373.167 686.833,366.333 678,359.5C 670.648,346.448 664.648,332.781 660,318.5C 654.086,304.991 646.42,292.658 637,281.5C 621.405,264.901 604.905,249.401 587.5,235C 574.525,226.549 563.692,228.715 555,241.5C 545.188,258.126 537.854,275.793 533,294.5C 527.374,301.794 521.374,308.794 515,315.5C 504.889,345.404 489.889,372.404 470,396.5C 457.254,408.583 443.921,419.917 430,430.5C 427.494,435.62 428.661,439.786 433.5,443C 441.497,443.168 449.497,443.001 457.5,442.5C 479.197,444.365 490.531,456.198 491.5,478C 491.968,484.291 490.635,490.124 487.5,495.5C 481.756,503.121 479.09,511.787 479.5,521.5C 471.665,574.676 463.999,628.01 456.5,681.5C 452.674,682.125 448.841,682.791 445,683.5C 443.005,681.671 441.172,679.671 439.5,677.5C 448.168,616.824 457.002,556.157 466,495.5C 474.704,487.364 476.371,478.031 471,467.5C 461.976,458.897 453.809,459.731 446.5,470C 437.425,469.22 428.425,467.72 419.5,465.5C 411.96,446.046 404.127,426.713 396,407.5C 393.196,402.396 389.363,398.23 384.5,395C 406.16,390.853 414.827,378.019 410.5,356.5C 414.459,355.673 418.459,355.173 422.5,355C 428.957,351.108 430.124,345.942 426,339.5C 425.25,338.874 424.416,338.374 423.5,338C 419.167,337.667 414.833,337.333 410.5,337C 400.173,323.746 386.839,319.412 370.5,324C 354.401,331.361 347.568,343.861 350,361.5C 352.036,369.759 356.203,376.592 362.5,382C 355.334,386.751 348,391.251 340.5,395.5C 335.734,385.42 327.734,380.753 316.5,381.5C 298.501,381.411 287.334,390.078 283,407.5C 277,430.167 271,452.833 265,475.5C 263.454,493.279 270.954,505.446 287.5,512C 293.825,512.5 300.158,512.666 306.5,512.5C 307.242,521.206 308.076,529.872 309,538.5C 304.647,557.912 299.98,577.245 295,596.5C 280.164,620.176 264.831,643.509 249,666.5C 245.815,672.222 243.315,678.222 241.5,684.5C 216.873,650.896 200.04,613.563 191,572.5C 187.58,556.499 185.08,540.499 183.5,524.5C 183.5,508.167 183.5,491.833 183.5,475.5C 195.963,359.687 252.296,272.52 352.5,214C 388.241,195.364 425.908,182.864 465.5,176.5C 476.131,175.304 486.797,174.637 497.5,174.5 Z"/></g>
<g><path style="opacity:1" fill="#3f84aa" d="M 487.5,495.5 C 490.635,490.124 491.968,484.291 491.5,478C 490.531,456.198 479.197,444.365 457.5,442.5C 483.078,424 503.578,401 519,373.5C 526.215,359.071 532.881,344.405 539,329.5C 546.04,322.129 552.706,314.462 559,306.5C 563.252,298.078 566.918,289.412 570,280.5C 572.245,275.003 575.245,270.003 579,265.5C 585.921,277.674 592.588,290.007 599,302.5C 599.906,304.744 600.406,307.077 600.5,309.5C 595.733,323.379 591.233,337.379 587,351.5C 584.474,361.853 585.474,371.853 590,381.5C 596,389.5 602,397.5 608,405.5C 608.667,408.167 608.667,410.833 608,413.5C 596.831,431.668 584.498,449.001 571,465.5C 562.262,474.621 551.762,480.787 539.5,484C 522.364,488.8 505.031,492.633 487.5,495.5 Z"/></g>
<g><path style="opacity:1" fill="#fcfbf8" d="M 425.5,671.5 C 422.171,671.002 419.005,670.002 416,668.5C 415.817,640.791 415.317,613.125 414.5,585.5C 412.752,578.095 409.918,571.095 406,564.5C 395.747,546.996 385.747,529.329 376,511.5C 377.271,497.309 379.771,483.309 383.5,469.5C 387.25,476.082 391.583,482.249 396.5,488C 413.087,495.152 430.42,499.318 448.5,500.5C 441.333,557.701 433.666,614.701 425.5,671.5 Z"/></g>
<g><path style="opacity:1" fill="#0c1e2c" d="M 874.5,462.5 C 877.341,490.868 877.008,519.201 873.5,547.5C 872.842,546.207 872.508,544.707 872.5,543C 873.06,537.839 873.56,532.673 874,527.5C 874.341,505.654 874.508,483.988 874.5,462.5 Z"/></g>
<g><path style="opacity:1" fill="#17232e" d="M 183.5,475.5 C 183.5,491.833 183.5,508.167 183.5,524.5C 181.839,519.942 181.172,511.942 181.5,500.5C 181.241,489.407 181.908,481.074 183.5,475.5 Z"/></g>
<g><path style="opacity:1" fill="#0c2542" d="M 697.5,509.5 C 668.157,509.304 638.824,509.637 609.5,510.5C 627.222,508.532 645.722,507.532 665,507.5C 679.908,507.206 690.742,507.872 697.5,509.5 Z"/></g>
<g><path style="opacity:1" fill="#6f9f49" d="M 697.5,509.5 C 728.629,511.064 759.296,516.231 789.5,525C 805.865,530.521 822.198,536.021 838.5,541.5C 821.902,651.022 765.902,733.355 670.5,788.5C 608.365,821.78 542.365,833.947 472.5,825C 496.536,798.953 523.536,776.62 553.5,758C 564.393,752.059 575.06,745.892 585.5,739.5C 593.818,736.008 601.818,732.008 609.5,727.5C 634.999,716.418 659.999,704.251 684.5,691C 705.637,679.533 724.804,665.367 742,648.5C 772.426,610.358 766.592,578.858 724.5,554C 705.628,544.065 685.961,536.065 665.5,530C 642.455,523.19 619.121,517.524 595.5,513C 600.172,511.89 604.839,511.056 609.5,510.5C 638.824,509.637 668.157,509.304 697.5,509.5 Z"/></g>
<g><path style="opacity:1" fill="#6f9f49" d="M 479.5,521.5 C 506.59,523.242 533.923,525.742 561.5,529C 595.592,534.475 628.592,543.808 660.5,557C 669.82,560.989 678.487,565.989 686.5,572C 697.997,581.808 699.497,592.975 691,605.5C 682.515,614.819 672.682,622.319 661.5,628C 631.694,642.047 600.694,652.713 568.5,660C 531.461,668.76 494.127,675.927 456.5,681.5C 463.999,628.01 471.665,574.676 479.5,521.5 Z"/></g>
<g><path style="opacity:1" fill="#fcfbf8" d="M 349.5,568.5 C 354.74,572.233 359.574,576.566 364,581.5C 369.044,586.876 373.711,592.542 378,598.5C 379.163,605.103 379.83,611.77 380,618.5C 381.005,642.83 381.838,667.163 382.5,691.5C 355.879,694.227 329.212,696.061 302.5,697C 298.108,689.275 292.941,682.108 287,675.5C 286.365,673.365 286.699,671.365 288,669.5C 303.429,651.407 318.096,632.741 332,613.5C 338.408,598.691 344.241,583.691 349.5,568.5 Z"/></g>
<g><path style="opacity:1" fill="#17232e" d="M 414.5,585.5 C 415.317,613.125 415.817,640.791 416,668.5C 419.005,670.002 422.171,671.002 425.5,671.5C 421.906,672.405 418.406,671.738 415,669.5C 413.513,641.341 413.347,613.341 414.5,585.5 Z"/></g>
<g><path style="opacity:1" fill="#041d41" d="M 609.5,727.5 C 601.818,732.008 593.818,736.008 585.5,739.5C 592.914,734.459 600.914,730.459 609.5,727.5 Z"/></g>
<g><path style="opacity:1" fill="#0b1620" d="M 689.5,817.5 C 664.51,832.321 637.843,843.321 609.5,850.5C 623.984,845.485 638.984,839.985 654.5,834C 666.188,828.488 677.855,822.988 689.5,817.5 Z"/></g>
<g><path style="opacity:1" fill="#121d27" d="M 556.5,861.5 C 534.223,864.284 511.889,864.95 489.5,863.5C 510.365,862.919 531.365,861.919 552.5,860.5C 554.045,860.511 555.378,860.844 556.5,861.5 Z"/></g>
</svg>
